<svg width="341" height="126" viewBox="0 0 341 126" fill="none" xmlns="http://www.w3.org/2000/svg">
<path d="M55.92 84.38C49.73 86.33 43.59 88.38 37.48 90.55C40.85 99.9 44.21 109.24 47.58 118.59C41.72 120.69 35.92 122.95 30.17 125.32C20.11 101.04 10.06 76.77 0 52.49C6.93 49.61 13.94 46.91 21 44.37C24.62 54.42 28.23 64.47 31.85 74.53C38.17 72.29 44.51 70.17 50.9 68.16C47.74 57.95 44.59 47.75 41.43 37.54C48.54 35.33 55.72 33.3 62.93 31.44C69.51 56.88 76.09 82.32 82.66 107.76C76.64 109.31 70.66 111.02 64.72 112.85C61.78 103.36 58.85 93.87 55.91 84.38H55.92Z" fill="currentColor"/>
<path d="M124.26 100.48C103.08 103.6 87.6799 86.65 82.9599 67.27C77.4499 44.65 88.7699 24.02 112.44 20.38C135.6 16.82 152.6 35.1 154.12 57.1C155.5 77.05 145.26 97.38 124.25 100.47L124.26 100.48ZM111.37 8.95001C108.73 12.15 107.43 13.77 104.88 17.01C100.32 17.75 95.7799 18.56 91.2499 19.43C95.5299 13.44 99.92 7.53999 104.42 1.70999C108.31 1.08999 112.21 0.52 116.11 0C121.98 4.31 127.77 8.71999 133.47 13.24C129.04 13.69 124.61 14.2 120.19 14.77C116.71 12.41 114.94 11.24 111.37 8.95001ZM114.87 36.85C101.68 38.98 99.5999 52.55 101.8 63.66C103.74 73.46 109.62 86.17 121.83 84.02C133.92 81.89 136.45 69.26 135.24 58.73C134 47.94 128.02 34.72 114.87 36.85Z" fill="currentColor"/>
<path d="M200.88 95.58C194.69 95.28 188.49 95.14 182.29 95.13C182.31 74.25 182.32 53.37 182.34 32.5C174.69 32.5 167.04 32.67 159.4 33.06C159.13 27.67 158.87 22.28 158.6 16.89C181.91 15.87 205.12 16.43 228.34 18.58C227.81 23.95 227.29 29.32 226.76 34.7C219.14 33.95 211.5 33.39 203.86 33.03C202.87 53.88 201.87 74.74 200.88 95.59V95.58Z" fill="currentColor"/>
<path d="M235.21 19.29C254.15 21.52 272.86 24.78 291.44 29.07C290.2 34.32 288.96 39.58 287.71 44.83C276.65 42.28 265.55 40.08 254.35 38.23C253.49 43.37 252.61 48.5 251.75 53.64C261.16 55.19 270.5 56.99 279.82 59.04C278.66 64.16 277.51 69.28 276.35 74.39C267.41 72.42 258.44 70.69 249.41 69.2L247.05 83.97C257.5 85.7 267.85 87.76 278.17 90.17C276.9 95.46 275.64 100.74 274.37 106.03C258.43 102.31 242.39 99.51 226.14 97.59C229.15 71.49 232.17 45.39 235.21 19.29Z" fill="currentColor"/>
<path d="M304.19 32.27C311.35 34.16 318.46 36.24 325.52 38.48C319.3 58.13 313.08 77.79 306.85 97.44C318.16 101.09 329.3 105.15 340.3 109.64C338.13 114.87 335.97 120.1 333.8 125.33C317.53 118.71 300.99 113.11 284.05 108.48C290.77 83.08 297.48 57.67 304.19 32.27Z" fill="currentColor"/>
</svg>
